<svg id="Layer_1" data-name="Layer 1" xmlns="http://www.w3.org/2000/svg" viewBox="0 0 3000 2574.72"><defs><style>.cls-1{fill:#231f20;}</style></defs><path class="cls-1" d="M1190.99689,766.04841l8.06426,1047.31967,609.942-4.71332-8.08558-1047.30284Zm206.6039,987.902-7.33822.39385c-51.79431,2.82264-94.406-36.43-95.1763-87.65763l-4.92985-321.91009c-.77055-51.22738,40.571-95.04357,92.36549-97.86549l7.33822-.39385c51.77324-2.806,94.406,36.43006,95.17656,87.65743l4.90838,321.9262C1490.73683,1707.31234,1449.3951,1751.12782,1397.60079,1753.95045Zm316.0331-274.32536c.792,51.21126-40.54971,95.02674-92.344,97.84937l-7.33823.39385c-51.79431,2.82264-94.406-36.43005-95.17656-87.65743l-8.74189-571.59226c-.77-51.22779,40.5713-95.04377,92.366-97.8659l7.33822-.39385c51.773-2.80581,94.406,36.43006,95.17605,87.65784Z"/></svg>